<?xml version="1.0" encoding="UTF-8" standalone="no"?>
<svg
   xmlns:dc="http://purl.org/dc/elements/1.1/"
   xmlns:cc="http://creativecommons.org/ns#"
   xmlns:rdf="http://www.w3.org/1999/02/22-rdf-syntax-ns#"
   xmlns:svg="http://www.w3.org/2000/svg"
   xmlns="http://www.w3.org/2000/svg"
   xmlns:sodipodi="http://sodipodi.sourceforge.net/DTD/sodipodi-0.dtd"
   xmlns:inkscape="http://www.inkscape.org/namespaces/inkscape"
   enable-background="new 0 0 128 128"
   height="128px"
   id="Layer_1"
   version="1.1"
   viewBox="0 0 128 128"
   width="128px"
   xml:space="preserve"
   inkscape:version="0.91+devel+osxmenu r12922"
   sodipodi:docname="key.svg"><metadata
     id="metadata5020"><rdf:RDF><cc:Work
         rdf:about=""><dc:format>image/svg+xml</dc:format><dc:type
           rdf:resource="http://purl.org/dc/dcmitype/StillImage" /></cc:Work></rdf:RDF></metadata><defs
     id="defs5018" /><sodipodi:namedview
     pagecolor="#ffffff"
     bordercolor="#666666"
     borderopacity="1"
     objecttolerance="10"
     gridtolerance="10"
     guidetolerance="10"
     inkscape:pageopacity="0"
     inkscape:pageshadow="2"
     inkscape:window-width="695"
     inkscape:window-height="480"
     id="namedview5016"
     showgrid="false"
     inkscape:zoom="1.84375"
     inkscape:cx="64"
     inkscape:cy="64"
     inkscape:window-x="0"
     inkscape:window-y="23"
     inkscape:window-maximized="0"
     inkscape:current-layer="Layer_1" /><path
     d="M116,8c0.617,0,1.809,0.156,2.828,1.172C119.848,10.195,120,11.383,120,12s-0.152,1.805-1.172,2.828  l-4.484,4.484L112,21.656v3.313V40h-8h-8v8v8h-8h-8v8v8h-0.805h-9.781l1.941,9.586C71.781,83.703,72,85.859,72,88  c0,17.648-14.355,32-32,32S8,105.648,8,88s14.355-32,32-32c4.957,0,9.891,1.266,14.664,3.758l5.207,2.719l4.152-4.156l49.148-49.148  C114.191,8.156,115.383,8,116,8 M40,104c8.824,0,16-7.18,16-16s-7.176-16-16-16s-16,7.18-16,16S31.176,104,40,104 M116,0  c-3.07,0-6.141,1.172-8.484,3.516L58.367,52.664C52.844,49.781,46.66,48,40,48C17.91,48,0,65.906,0,88s17.91,40,40,40  s40-17.906,40-40c0-2.742-0.281-5.414-0.805-8H88V64h16V48h16V24.969l4.484-4.484c4.688-4.688,4.688-12.281,0-16.969  C122.141,1.172,119.07,0,116,0L116,0z M40,96c-4.418,0-8-3.578-8-8s3.582-8,8-8s8,3.578,8,8S44.418,96,40,96L40,96z"
     fill="#546E7A"
     id="path5014"
     style="fill:#000000" /></svg>