<?xml version="1.0" ?><svg viewBox="0 0 288 288" xmlns="http://www.w3.org/2000/svg"><path d="M249 108c-12 0-12 18 0 18s12-18 0-18zm-9 63c0 12 18 12 18 0v-30c0-12-18-12-18 0v30zm-21-63c12 0 12 18 0 18h-33v12h21c12 0 12 18 0 18h-21v15c0 12-18 12-18 0v-54c0-5 4-9 9-9h42zm69 18v36c0 26-21 48-48 48h-18c-19 22-47 36-78 36s-59-14-78-36H48c-26 0-48-21-48-48v-36c0-27 22-48 48-48h18c19-22 47-36 78-36s59 14 78 36h18c27 0 48 22 48 48zm-165-18c-12 0-12 18 0 18s12-18 0-18zm-9 63c0 12 18 12 18 0v-30c0-12-18-12-18 0v30zm-27 1l14-51c4-15-14-17-17-6l-6 22-6-22c-2-9-16-9-18 0l-6 22-6-22c-3-10-21-9-17 6l14 51c3 10 15 11 18 0l6-21 6 21c3 11 15 11 18 0zm153-82h-63c-15 0-27 12-27 27v54c0 12-8 25-25 27h115c20 0 36-16 36-36v-36c0-20-16-36-36-36z"/></svg>